<svg xmlns="http://www.w3.org/2000/svg" width="139" height="28" viewBox="0 0 139 28"><g transform="translate(0 1)"><g fill="none" stroke="#000" stroke-width="2"><rect width="24" height="27" rx="4" stroke="none"/><rect x="1" y="1" width="22" height="25" rx="3" fill="none"/></g><path d="M11.36,22.24V20.52a5.842,5.842,0,0,1-2.56-.74A7.082,7.082,0,0,1,7,18.26l1.46-1.32a5.618,5.618,0,0,0,1.35,1.22,4.074,4.074,0,0,0,1.69.58V14.26a6.364,6.364,0,0,1-3.12-1.39,3.256,3.256,0,0,1-.96-2.45A3.224,3.224,0,0,1,8.48,7.88a5.055,5.055,0,0,1,2.88-1.14V5h1.7V6.74a5.708,5.708,0,0,1,2.23.64A5.308,5.308,0,0,1,16.94,8.8l-1.48,1.22a4.04,4.04,0,0,0-1.05-.97,3.847,3.847,0,0,0-1.47-.53v4.1l.08.02a12.419,12.419,0,0,1,1.88.62,4.549,4.549,0,0,1,1.27.79,2.663,2.663,0,0,1,.71,1.04,3.911,3.911,0,0,1,.22,1.37,3.719,3.719,0,0,1-1.05,2.7,4.853,4.853,0,0,1-2.99,1.32v1.76ZM15,16.6a1.8,1.8,0,0,0-.44-1.25,3.26,3.26,0,0,0-1.62-.79v4.16A2.63,2.63,0,0,0,14.46,18,1.937,1.937,0,0,0,15,16.6ZM9.5,10.32a1.6,1.6,0,0,0,.49,1.27,3.84,3.84,0,0,0,1.51.71V8.5a2.8,2.8,0,0,0-1.48.6A1.549,1.549,0,0,0,9.5,10.32Z" fill="#2e369a"/><text transform="translate(32 21)" fill="#2e369a" font-size="21" font-family="IBMPlexSans-Medium, IBM Plex Sans" font-weight="500"><tspan x="0" y="0">safe-invest</tspan></text></g></svg>