<svg xmlns="http://www.w3.org/2000/svg" xmlns:xlink="http://www.w3.org/1999/xlink" width="300" height="200" viewBox="0 0 300 200"><defs><clipPath id="a"><rect width="300" height="200" transform="translate(90 1048)" fill="#dedede"/></clipPath></defs><g transform="translate(-90 -1048)" clip-path="url(#a)"><g transform="translate(96.979 1005.58)"><path d="M257.437,158.009a114.416,114.416,0,1,0-218.65,47.2H247.254A113.987,113.987,0,0,0,257.437,158.009Z" fill="#f0f2ff"/><line x2="223.112" transform="translate(31.465 205.206)" stroke-width="2.86" stroke="#2e369a" stroke-linecap="round" stroke-linejoin="round" fill="none"/><line x2="7.151" transform="translate(18.593 205.206)" stroke-width="2.86" stroke="#2e369a" stroke-linecap="round" stroke-linejoin="round" fill="none"/><line x2="7.151" transform="translate(260.297 205.206)" stroke-width="2.86" stroke="#2e369a" stroke-linecap="round" stroke-linejoin="round" fill="none"/><ellipse cx="42.477" cy="4.891" rx="42.477" ry="4.891" transform="translate(98.913 232.637)" fill="#f0f2ff"/><path d="M206.751,123.284a10.355,10.355,0,0,0-10.383-10.355H89.674a10.355,10.355,0,0,0-10.383,10.355v70.738h127.46Z" fill="#d6daff"/><path d="M164.445,112.929H89.674a10.355,10.355,0,0,0-10.383,10.355v70.738h4.062Z" fill="#fff"/><path d="M158.467,224.914H127.574l1.916-15.446H156.55Z" fill="#fff"/><path d="M158.467,224.914H127.574l1.916-15.446H156.55Z" fill="none" stroke="#2e369a" stroke-linecap="round" stroke-linejoin="round" stroke-width="2.86"/><path d="M165.132,232.637H120.91a2.4,2.4,0,0,1-2.231-3.347,7.723,7.723,0,0,1,6.951-4.376h34.783a7.723,7.723,0,0,1,6.951,4.376,2.4,2.4,0,0,1-2.231,3.347Z" fill="#fff" stroke="#2e369a" stroke-linecap="round" stroke-linejoin="round" stroke-width="2.86"/><path d="M196.367,209.468a10.355,10.355,0,0,0,10.383-10.355v-5.092H79.291v5.092a10.355,10.355,0,0,0,10.383,10.355Z" fill="#fff" stroke="#2e369a" stroke-linecap="round" stroke-linejoin="round" stroke-width="2.86"/><path d="M206.751,123.284a10.355,10.355,0,0,0-10.383-10.355H89.674a10.355,10.355,0,0,0-10.383,10.355v70.738h127.46Z" fill="none" stroke="#2e369a" stroke-linecap="round" stroke-linejoin="round" stroke-width="2.86"/><path d="M144.737,201.745a1.716,1.716,0,1,1-1.716-1.716A1.716,1.716,0,0,1,144.737,201.745Z" fill="none" stroke="#2e369a" stroke-linecap="round" stroke-linejoin="round" stroke-width="2.86"/><path d="M181.322,166.447a6.894,6.894,0,0,1-6.836,6.922H111.556a6.922,6.922,0,0,1,0-13.816h62.929A6.894,6.894,0,0,1,181.322,166.447Z" fill="#d6daff" stroke="#2e369a" stroke-linejoin="round" stroke-width="2.86"/><path d="M157.723,159.554H111.556a6.922,6.922,0,0,0,0,13.816h46.167Z" fill="#fff" stroke="#2e369a" stroke-linejoin="round" stroke-width="2.86"/><path d="M157.723,159.554H111.556a6.922,6.922,0,0,0,0,13.816h46.167Z" fill="none" stroke="#2e369a" stroke-linejoin="round" stroke-width="2.86"/><path d="M120.738,66.762a3.49,3.49,0,0,0-2.86,5.578L140.16,101.2a3.49,3.49,0,0,0,5.492,0L167.935,72.34a3.49,3.49,0,0,0-2.86-5.578h-8.581V50.744A6.894,6.894,0,0,0,149.6,43.85H136.1a6.894,6.894,0,0,0-6.894,6.894V66.762Z" fill="#fff"/><path d="M120.738,66.762a3.49,3.49,0,0,0-2.86,5.578L140.16,101.2a3.49,3.49,0,0,0,5.492,0L167.935,72.34a3.49,3.49,0,0,0-2.86-5.578h-8.581V50.744A6.894,6.894,0,0,0,149.6,43.85H136.1a6.894,6.894,0,0,0-6.894,6.894V66.762Z" fill="none" stroke="#2e369a" stroke-linejoin="round" stroke-width="2.86"/></g></g></svg>