<svg xmlns="http://www.w3.org/2000/svg" xmlns:xlink="http://www.w3.org/1999/xlink" width="300" height="200" viewBox="0 0 300 200"><defs><clipPath id="a"><rect width="300" height="200" transform="translate(90 1048)" fill="#dedede"/></clipPath></defs><g transform="translate(-90 -1048)" clip-path="url(#a)"><g transform="translate(103.586 1011.098)"><path d="M246.073,146.319A109.5,109.5,0,1,0,36.847,191.624H236.327A109.089,109.089,0,0,0,246.073,146.319Z" fill="#f0f2ff"/><line x2="213.524" transform="translate(28.443 191.487)" stroke-width="2.737" stroke="#2e369a" stroke-linecap="round" stroke-linejoin="round" fill="none"/><line x2="6.844" transform="translate(16.124 191.487)" stroke-width="2.737" stroke="#2e369a" stroke-linecap="round" stroke-linejoin="round" fill="none"/><line x2="6.844" transform="translate(247.442 191.487)" stroke-width="2.737" stroke="#2e369a" stroke-linecap="round" stroke-linejoin="round" fill="none"/><ellipse cx="43.115" cy="4.298" rx="43.115" ry="4.298" transform="translate(94.06 228.307)" fill="#f0f2ff"/><path d="M190.611,194.663V139.612a6.9,6.9,0,0,0-6.9-6.9H90.638a6.9,6.9,0,0,0-6.926,6.9v55.051Z" fill="#d6daff"/><path d="M97.509,194.663,159.6,132.577H90.611a6.9,6.9,0,0,0-6.9,7.035v55.051Z" fill="#fff"/><path d="M190.611,194.663V208.35a6.9,6.9,0,0,1-6.9,6.9H90.638a6.9,6.9,0,0,1-6.9-6.9V194.663Z" fill="#fff" stroke="#2e369a" stroke-linecap="round" stroke-linejoin="round" stroke-width="2.737"/><path d="M140.625,205.011a3.449,3.449,0,1,1-3.449-3.449,3.449,3.449,0,0,1,3.449,3.449Z" fill="#d6daff" stroke="#2e369a" stroke-linecap="round" stroke-linejoin="round" stroke-width="2.737"/><path d="M154.422,229.155H119.9l1.752-13.8H152.7Z" fill="#fff" stroke="#2e369a" stroke-linecap="round" stroke-linejoin="round" stroke-width="2.737"/><line x2="55.16" transform="translate(109.582 229.155)" stroke-width="2.737" stroke="#2e369a" stroke-linecap="round" stroke-linejoin="round" fill="none"/><path d="M190.611,194.663V139.612a6.9,6.9,0,0,0-6.9-6.9H90.638a6.9,6.9,0,0,0-6.926,6.9v55.051Z" fill="none" stroke="#2e369a" stroke-linecap="round" stroke-linejoin="round" stroke-width="2.737"/><path d="M157.871,163.62a20.7,20.7,0,1,1-20.7-20.7A20.7,20.7,0,0,1,157.871,163.62Z" fill="#fff"/><path d="M157.871,163.62a20.7,20.7,0,1,1-20.7-20.7A20.7,20.7,0,0,1,157.871,163.62Z" fill="none" stroke="#2e369a" stroke-linecap="round" stroke-linejoin="round" stroke-width="2.737"/><path d="M133.726,175.692a5.147,5.147,0,0,1-3.668-1.506l-6.871-6.9a5.174,5.174,0,0,1,7.309-7.309l3.258,3.23,8.4-8.4a5.174,5.174,0,0,1,7.309,7.309l-12.072,12.072A5.119,5.119,0,0,1,133.726,175.692Z" fill="#d6daff"/><path d="M133.726,175.692a5.147,5.147,0,0,1-3.668-1.506l-6.871-6.9a5.174,5.174,0,0,1,7.309-7.309l3.258,3.23,8.4-8.4a5.174,5.174,0,0,1,7.309,7.309l-12.072,12.072A5.119,5.119,0,0,1,133.726,175.692Z" fill="none" stroke="#2e369a" stroke-linecap="round" stroke-linejoin="round" stroke-width="2.737"/><rect width="68.985" height="41.391" rx="2.874" transform="translate(3.435 97.92) rotate(-15.83)" fill="#fff"/><path d="M70.682,107.556l-3.75-13.277a6.926,6.926,0,0,1-8.541-4.763l-39.8,11.278a6.926,6.926,0,0,1-4.763,8.541l3.75,13.277a6.9,6.9,0,0,1,8.541,4.736l39.8-11.278A6.9,6.9,0,0,1,70.682,107.556Z" fill="#fff"/><path d="M48.892,106.543a6.9,6.9,0,1,1-8.514-4.736,6.9,6.9,0,0,1,8.514,4.736Z" fill="#d6daff"/><path d="M48.892,106.543a6.9,6.9,0,1,1-8.514-4.736,6.9,6.9,0,0,1,8.514,4.736Z" fill="none" stroke="#2e369a" stroke-linecap="round" stroke-linejoin="round" stroke-width="2.737"/><path d="M70.682,107.556l-3.75-13.277a6.926,6.926,0,0,1-8.541-4.763l-39.8,11.278a6.926,6.926,0,0,1-4.763,8.541l3.75,13.277a6.9,6.9,0,0,1,8.541,4.736l39.8-11.278A6.9,6.9,0,0,1,70.682,107.556Z" fill="none" stroke="#2e369a" stroke-linecap="round" stroke-linejoin="round" stroke-width="2.737"/><rect width="68.985" height="41.391" rx="2.874" transform="translate(3.435 97.92) rotate(-15.83)" stroke-width="2.737" stroke="#2e369a" stroke-linecap="round" stroke-linejoin="round" fill="none"/><path d="M254.094,136.163l-48.645-13.934a5.721,5.721,0,0,1-3.942-7.09L209.719,86.4a5.721,5.721,0,0,1,7.09-3.942l48.727,13.934a5.749,5.749,0,0,1,3.942,7.09l-8.212,28.744a5.721,5.721,0,0,1-7.172,3.942Z" fill="#fff"/><rect width="62.086" height="6.898" transform="translate(209.439 87.495) rotate(15.98)" fill="#d6daff"/><line x2="16.589" y2="4.736" transform="translate(208.46 115.933)" stroke-width="2.737" stroke="#2e369a" stroke-linecap="round" stroke-linejoin="round" fill="none"/><rect width="48.289" height="6.898" transform="translate(212.269 102.644) rotate(15.98)" fill="#fff"/><path d="M254.094,136.163l-48.645-13.934a5.721,5.721,0,0,1-3.942-7.09L209.719,86.4a5.721,5.721,0,0,1,7.09-3.942l48.727,13.934a5.749,5.749,0,0,1,3.942,7.09l-8.212,28.744a5.721,5.721,0,0,1-7.172,3.942Z" fill="none" stroke="#2e369a" stroke-linecap="round" stroke-linejoin="round" stroke-width="2.737"/><rect width="62.086" height="6.898" transform="translate(209.439 87.495) rotate(15.98)" stroke-width="2.737" stroke="#2e369a" stroke-linecap="round" stroke-linejoin="round" fill="none"/><rect width="48.289" height="6.898" transform="translate(212.269 102.644) rotate(15.98)" stroke-width="2.737" stroke="#2e369a" stroke-linecap="round" stroke-linejoin="round" fill="none"/><circle cx="22.995" cy="22.995" r="22.995" transform="translate(114.181 58.856)" fill="#d6daff"/><path d="M137.176,58.856a22.995,22.995,0,0,0-16.261,39.256L153.436,65.7A23.022,23.022,0,0,0,137.176,58.856Z" fill="#fff"/><circle cx="22.995" cy="22.995" r="22.995" transform="translate(114.181 58.856)" fill="none" stroke="#2e369a" stroke-miterlimit="10" stroke-width="2.737"/><line y2="2.874" transform="translate(137.176 93.348)" stroke-width="2.737" stroke="#2e369a" stroke-linecap="round" stroke-linejoin="round" fill="none"/><line y2="2.874" transform="translate(137.176 67.479)" stroke-width="2.737" stroke="#2e369a" stroke-linecap="round" stroke-linejoin="round" fill="none"/><path d="M131.4,87.6a5.749,5.749,0,1,0,5.749-5.749A5.749,5.749,0,1,1,142.9,76.1" fill="none" stroke="#2e369a" stroke-linecap="round" stroke-linejoin="round" stroke-width="2.737"/></g></g></svg>