<svg xmlns="http://www.w3.org/2000/svg" xmlns:xlink="http://www.w3.org/1999/xlink" width="300" height="200" viewBox="0 0 300 200"><defs><clipPath id="a"><rect width="300" height="200" transform="translate(90 1048)" fill="#dedede"/></clipPath></defs><g transform="translate(-90 -1048)" clip-path="url(#a)"><g transform="translate(94.306 1001.574)"><path d="M263.705,162.973A116.555,116.555,0,1,0,40.969,211.052H253.332A116.2,116.2,0,0,0,263.705,162.973Z" fill="#f0f2ff"/><line x2="227.282" transform="translate(32.053 211.052)" stroke-width="2.914" stroke="#2e369a" stroke-linecap="round" stroke-linejoin="round" fill="none"/><line x2="7.285" transform="translate(18.94 211.052)" stroke-width="2.914" stroke="#2e369a" stroke-linecap="round" stroke-linejoin="round" fill="none"/><line x2="7.285" transform="translate(265.162 211.052)" stroke-width="2.914" stroke="#2e369a" stroke-linecap="round" stroke-linejoin="round" fill="none"/><rect width="140.74" height="100.529" rx="10.49" transform="translate(68.913 120.314)" fill="#d6daff"/><path d="M154.027,120.314H80.977a12.063,12.063,0,0,0-12.063,12.063v73.051Z" fill="#fff"/><rect width="140.74" height="100.529" rx="10.49" transform="translate(68.913 120.314)" stroke-width="2.914" stroke="#2e369a" stroke-linecap="round" stroke-linejoin="round" fill="none"/><path d="M197.59,220.842A12.063,12.063,0,0,0,209.8,208.779v-4.021H68.913v4.021a12.063,12.063,0,0,0,12.063,12.063Z" fill="#fff" stroke="#2e369a" stroke-linecap="round" stroke-linejoin="round" stroke-width="2.914"/><path d="M151.347,236.927H127.22l2.011-16.085h20.106Z" fill="#fff"/><path d="M151.347,236.927H127.22l2.011-16.085h20.106Z" fill="none" stroke="#2e369a" stroke-linecap="round" stroke-linejoin="round" stroke-width="2.914"/><path d="M165.421,244.969H113.146a8.042,8.042,0,0,1,8.042-8.042h36.161a8.071,8.071,0,0,1,8.071,8.042Z" fill="#fff" stroke="#2e369a" stroke-linecap="round" stroke-linejoin="round" stroke-width="2.914"/><path d="M101.082,106.24H217.637v69.408a6.993,6.993,0,0,1-6.993,6.993H108.076a6.993,6.993,0,0,1-6.993-6.993Z" fill="#fff" stroke="#2e369a" stroke-linecap="round" stroke-linejoin="round" stroke-width="2.914"/><path d="M108.076,82.113H210.7a6.993,6.993,0,0,1,6.993,6.993V106.24H101.141V89.106a6.993,6.993,0,0,1,6.935-6.993Z" fill="#fff" stroke="#2e369a" stroke-linecap="round" stroke-linejoin="round" stroke-width="2.914"/><circle cx="4.021" cy="4.021" r="4.021" transform="translate(109.125 90.155)" fill="#d6daff" stroke="#2e369a" stroke-linecap="round" stroke-linejoin="round" stroke-width="2.914"/><circle cx="4.021" cy="4.021" r="4.021" transform="translate(125.209 90.155)" fill="#d6daff" stroke="#2e369a" stroke-linecap="round" stroke-linejoin="round" stroke-width="2.914"/><circle cx="4.021" cy="4.021" r="4.021" transform="translate(141.294 90.155)" fill="#d6daff" stroke="#2e369a" stroke-linecap="round" stroke-linejoin="round" stroke-width="2.914"/><rect width="16.085" height="16.085" rx="2.914" transform="translate(137.273 130.367)" stroke-width="2.914" stroke="#2e369a" stroke-linecap="round" stroke-linejoin="round" fill="#d6daff"/><rect width="16.085" height="16.085" rx="2.914" transform="translate(163.41 130.367)" stroke-width="2.914" stroke="#2e369a" stroke-linecap="round" stroke-linejoin="round" fill="#d6daff"/><rect width="16.085" height="16.085" rx="2.914" transform="translate(189.547 130.367)" stroke-width="2.914" stroke="#2e369a" stroke-linecap="round" stroke-linejoin="round" fill="#d6daff"/><rect width="16.085" height="16.085" rx="2.914" transform="translate(137.273 154.494)" stroke-width="2.914" stroke="#2e369a" stroke-linecap="round" stroke-linejoin="round" fill="#d6daff"/><rect width="16.085" height="16.085" rx="2.914" transform="translate(163.41 154.494)" stroke-width="2.914" stroke="#2e369a" stroke-linecap="round" stroke-linejoin="round" fill="#d6daff"/><rect width="16.085" height="16.085" rx="2.914" transform="translate(189.547 154.494)" stroke-width="2.914" stroke="#2e369a" stroke-linecap="round" stroke-linejoin="round" fill="#d6daff"/><rect width="16.085" height="8.042" rx="2.914" transform="translate(113.146 114.282)" stroke-width="2.914" stroke="#2e369a" stroke-linecap="round" stroke-linejoin="round" fill="#d6daff"/><rect width="68.359" height="8.042" rx="2.914" stroke-width="2.914" fill="#d6daff" stroke="#2e369a" stroke-linejoin="round" transform="translate(137.273 114.282)"/><line x2="16.085" transform="translate(113.146 130.367)" stroke-width="2.914" stroke="#2e369a" stroke-linecap="round" stroke-linejoin="round" fill="none"/><line x2="16.085" transform="translate(113.146 138.409)" stroke-width="2.914" stroke="#2e369a" stroke-linecap="round" stroke-linejoin="round" fill="none"/><line x2="16.085" transform="translate(113.146 146.451)" stroke-width="2.914" stroke="#2e369a" stroke-linecap="round" stroke-linejoin="round" fill="none"/><line x2="16.085" transform="translate(113.146 154.494)" stroke-width="2.914" stroke="#2e369a" stroke-linecap="round" stroke-linejoin="round" fill="none"/><line x2="16.085" transform="translate(113.146 162.536)" stroke-width="2.914" stroke="#2e369a" stroke-linecap="round" stroke-linejoin="round" fill="none"/><line x2="10.053" transform="translate(113.146 170.578)" stroke-width="2.914" stroke="#2e369a" stroke-linecap="round" stroke-linejoin="round" fill="none"/><path d="M243.833,214.607c-.583,2.127-1.748,2.185-2.593,0l-13.2-31.5c-.845-2.04,0-2.914,2.185-2.156l31.645,13.171c2.04.874,1.952,2.04-.175,2.622l-10.14,2.914a7.867,7.867,0,0,0-4.954,4.924Z" fill="#fff" stroke="#2e369a" stroke-linejoin="round" stroke-width="2.914"/><circle cx="1.69" cy="1.69" r="1.69" transform="translate(137.593 211.11)" fill="none" stroke="#2e369a" stroke-linecap="round" stroke-linejoin="round" stroke-width="2.914"/></g></g></svg>